<?xml version="1.0" encoding="UTF-8" standalone="no"?>
<!-- Created with Inkscape (http://www.inkscape.org/) -->

<svg
   xmlns:dc="http://purl.org/dc/elements/1.1/"
   xmlns:cc="http://creativecommons.org/ns#"
   xmlns:rdf="http://www.w3.org/1999/02/22-rdf-syntax-ns#"
   xmlns:svg="http://www.w3.org/2000/svg"
   xmlns="http://www.w3.org/2000/svg"
   xmlns:sodipodi="http://sodipodi.sourceforge.net/DTD/sodipodi-0.dtd"
   xmlns:inkscape="http://www.inkscape.org/namespaces/inkscape"
   width="100"
   height="72"
   id="svg4479"
   version="1.1"
   inkscape:version="0.48.3.1 r9886"
   sodipodi:docname="fleche3.svg">
  <defs
     id="defs4481" />
  <sodipodi:namedview
     id="base"
     pagecolor="#ffffff"
     bordercolor="#666666"
     borderopacity="1.0"
     inkscape:pageopacity="0.0"
     inkscape:pageshadow="2"
     inkscape:zoom="2.8"
     inkscape:cx="30.107801"
     inkscape:cy="65.16896"
     inkscape:document-units="px"
     inkscape:current-layer="layer1"
     showgrid="false"
     inkscape:window-width="1920"
     inkscape:window-height="1028"
     inkscape:window-x="0"
     inkscape:window-y="25"
     inkscape:window-maximized="1"
     showguides="true"
     inkscape:guide-bbox="true" />
  <metadata
     id="metadata4484">
    <rdf:RDF>
      <cc:Work
         rdf:about="">
        <dc:format>image/svg+xml</dc:format>
        <dc:type
           rdf:resource="http://purl.org/dc/dcmitype/StillImage" />
        <dc:title />
      </cc:Work>
    </rdf:RDF>
  </metadata>
  <g
     inkscape:label="Calque 1"
     inkscape:groupmode="layer"
     id="layer1"
     transform="translate(0,-980.3622)">
    <path
       style="fill:none;stroke:#000000;stroke-width:1.75699151;stroke-linecap:round;stroke-linejoin:round;stroke-miterlimit:4;stroke-opacity:1;stroke-dasharray:none"
       inkscape:transform-center-x="20.21528"
       inkscape:transform-center-y="3.8023211"
       d="m 75.593027,1005.6094 c 7.24804,6.7371 14.212412,20.9993 15.175566,29.224 -10.056517,-5.2931 -15.695173,-6.9415 -27.852104,-4.3217 8.690847,-8.3272 8.476989,-14.8839 12.676538,-24.9023 z"
       id="path2985-6"
       inkscape:connector-curvature="0"
       sodipodi:nodetypes="cccc" />
    <path
       style="fill:none;stroke:#000000;stroke-width:3.66230631;stroke-linecap:round;stroke-linejoin:round;stroke-miterlimit:4;stroke-opacity:1;stroke-dasharray:none"
       d="m 13.427893,992.17278 c 25.306871,1.85964 35.494787,8.04882 56.870627,25.76382"
       id="path3756-2"
       inkscape:connector-curvature="0"
       sodipodi:nodetypes="cc"
       inkscape:transform-center-x="47.889558"
       inkscape:transform-center-y="-39.744595" />
    <path
       style="fill:none;stroke:#000000;stroke-width:2.12322187;stroke-linecap:round;stroke-linejoin:round;stroke-miterlimit:4;stroke-opacity:1;stroke-dasharray:none"
       id="path4434"
       d="m 89.038703,1030.8863 c -1.009638,-0.03 -2.017119,-0.1016 -3.024943,-0.1666 -1.09852,-0.064 -2.203874,-0.1061 -3.303113,-0.029 -0.158839,0.011 -0.316367,0.03 -0.474548,0.044 -0.48497,0.036 -0.961844,0.1259 -1.439375,0.212 -0.302228,0.1089 -1.335213,0 -1.027145,-0.2992 0.03172,-0.027 0.07211,-0.034 0.108001,-0.05 0.05739,-0.016 0.115568,-0.036 0.174699,-0.049 0.313209,-0.072 0.636189,-0.1065 0.954989,-0.1426 0.390068,-0.044 0.515454,-0.054 0.915703,-0.093 0.965849,-0.094 1.932512,-0.1811 2.889537,-0.3446 0.452009,-0.086 0.895012,-0.211 1.332229,-0.3534 0.272787,-0.098 0.544848,-0.1987 0.811049,-0.3137 0.200854,-0.089 0.399718,-0.1838 0.60328,-0.2678 0.15851,-0.068 0.321798,-0.125 0.471598,-0.2118 0.03582,-0.032 0.168899,-0.1033 0.186244,-0.1457 0.0027,-0.01 -0.02365,0 -0.02379,-5e-4 -0.03696,-0.01 -0.07131,-0.01 -0.105669,-0.015 -0.08016,-0.021 -0.314392,-0.088 -0.237546,-0.06 0.121286,0.044 0.491315,0.1258 0.365613,0.1068 -0.192366,-0.029 -0.377421,-0.092 -0.566427,-0.1373 -0.230113,-0.056 -0.459797,-0.1117 -0.689843,-0.1665 -0.872613,-0.2069 -0.701489,-0.165 -1.597341,-0.3571 -1.338492,-0.2804 -2.694228,-0.478 -4.060279,-0.5557 -0.228561,-0.013 -0.458265,-0.017 -0.687135,-0.026 -1.128196,-0.04 -2.254659,0.056 -3.379918,0.1185 -0.911974,0.038 -1.822307,-0.044 -2.732352,-0.089 -0.403327,-0.023 -0.806976,-0.034 -1.209638,-0.063 -0.481235,-0.045 -0.964667,-0.037 -1.447272,-0.04 -0.640228,-0.01 -1.280295,-0.01 -1.919851,-0.04 -0.352509,-0.01 -0.704023,-0.042 -1.056989,-0.04 -0.09822,0.01 -0.199402,0.011 -0.298512,0.019 -0.04126,0.01 -0.08643,0.02 -0.128067,0.01 -0.279937,-0.087 -0.555882,-0.1857 -0.834108,-0.2786 0.0077,-0.026 -0.007,-0.058 0.02259,-0.077 0.06761,-0.1501 0.2544,-0.3079 0.376838,-0.4091 0.232117,-0.1689 0.494259,-0.2885 0.760184,-0.3922 0.36564,-0.1309 0.744486,-0.2075 1.128438,-0.2558 0.380842,-0.025 0.762274,-0.05 1.143727,-0.038 0.190323,0.01 0.52173,0.033 0.706113,0.046 0.930447,0.058 1.862789,0.068 2.794298,0.089 1.249281,0.048 2.496889,0 3.743153,-0.088 1.158027,-0.086 2.317412,-0.1545 3.477247,-0.2108 0.915488,-0.027 1.831634,-0.01 2.747068,0.01 0.476094,0 0.95253,0.024 1.428254,0.01 0.282538,-0.012 0.328175,-0.022 0.604497,-0.054 0.433212,-0.055 0.851518,-0.1792 1.271222,-0.2937 -0.158375,0.1735 0.139324,-0.075 0.115252,-0.042 -0.02863,0.016 -0.03669,0.043 -0.05309,0.051 -0.03105,0.01 -0.127697,-0.022 -0.09498,-0.011 0.531979,0.1669 0.940608,0.2471 0.460852,0.1467 -0.640315,-0.1483 -1.287559,-0.2639 -1.93364,-0.3833 -0.816735,-0.1368 -1.629652,-0.2916 -2.438396,-0.4689 -0.994504,-0.2551 -1.998061,-0.4669 -3.013156,-0.6191 -0.175633,-0.024 -0.351709,-0.049 -0.527597,-0.072 -0.481046,-0.063 -0.531737,-0.063 -1.007421,-0.1313 -0.48614,-0.07 -0.969558,-0.1553 -1.455201,-0.2259 -0.666592,-0.067 -1.325919,-0.1833 -1.988505,-0.279 -0.472747,-0.068 -0.546696,-0.071 -1.021197,-0.1205 -0.47022,-0.034 -0.941038,-0.077 -1.41279,-0.09 -0.353867,-0.01 -0.70987,0 -1.063642,0.01 -0.304332,0.013 -0.608979,0.026 -0.913358,0.016 -0.11806,0 -0.237727,-0.027 -0.35683,-0.034 -0.246457,-0.1108 -0.503041,-0.2033 -0.734949,-0.3421 -0.03589,-0.026 0.09153,-0.013 0.135083,-0.018 0.06823,-0.01 0.137771,-0.015 0.206788,-0.023 0.367911,-0.039 0.734989,-0.085 1.102558,-0.1252 1.337014,-0.1166 2.677629,-0.1603 4.01899,-0.1664 1.487983,0.026 2.974542,0.09 4.462941,0.088 0.771367,-0.013 1.539796,0.055 2.308152,0.108 0.377091,0.02 0.75185,0.067 1.129587,0.073 0.212587,0 0.423541,-0.019 0.635403,-0.028 0.120312,0 0.240933,0 0.36107,-0.021 0.116038,-0.013 0.234334,-0.04 0.346972,-0.073 0.138208,-0.056 0.279036,-0.1131 0.4184,-0.1699 0.03797,-0.015 0.07469,-0.027 0.11458,-0.04 -2.35e-4,-1e-4 0.02426,0 0.02372,0 -0.02668,0.01 -0.03374,0.034 -0.05275,0.033 -0.04496,0 -0.08388,-0.024 -0.12728,-0.04 -0.07684,-0.025 -0.148376,-0.057 -0.223017,-0.085 -0.957268,-0.3648 -1.918971,-0.7182 -2.889894,-1.045 -1.132739,-0.3459 -1.04961,-0.3207 -2.347646,-0.5707 -0.802965,-0.1585 -1.618463,-0.2076 -2.432979,-0.2551 -0.563074,-0.03 -1.114205,-0.1545 -1.660908,-0.284 -0.626062,-0.1313 -1.246062,-0.2903 -1.857064,-0.4795 -0.05262,-0.014 -0.108397,-0.03 -0.160767,-0.044 -0.05262,-0.014 -0.104943,-0.029 -0.157589,-0.043 -0.63283,-0.1745 0.966077,0.2461 0.388394,0.109 -0.03663,-0.01 -0.07354,-0.017 -0.109324,-0.026 -0.139115,-0.031 -0.279454,-0.072 -0.42252,-0.091 -0.245227,-0.1102 -0.4987,-0.2043 -0.735648,-0.3307 -0.04718,-0.031 0.113336,0.013 0.167776,0.02 0.09144,0.012 0.184571,0.026 0.277034,0.04 0.452116,0.067 0.904897,0.1337 1.357463,0.1981 1.116685,0.1365 2.241857,0.2052 3.366344,0.2374 0.759915,0.043 1.514124,-0.05 2.266654,-0.1391 0.344942,-0.056 0.693109,-0.088 1.038347,-0.1393 0.231968,-0.04 0.459824,-0.099 0.691093,-0.1435 0.155842,-0.039 0.311032,-0.063 0.466416,-0.095 0.128612,-0.04 0.26606,-0.052 0.400431,-0.069 0.160983,-0.013 0.319499,-0.046 0.472754,-0.098 0.121145,-0.054 0.243029,-0.1029 0.355445,-0.1731 0.08101,-0.064 0.17521,-0.1249 0.234341,-0.2123 0.0291,-0.1 -0.0246,-0.187 -0.08049,-0.2654 -0.171769,-0.1577 -0.415269,-0.2094 -0.633253,-0.275 0.09204,0.023 -0.575687,-0.1573 -0.431693,-0.1183 0.164356,0.044 0.329136,0.088 0.493237,0.1334 0.111562,0.031 -0.223682,-0.06 -0.335278,-0.09 -0.727,-0.1965 -0.335272,-0.09 -1.523016,-0.4188 -0.136447,-0.04 -0.271234,-0.08 -0.40668,-0.1195 -0.502134,-0.1461 -0.359948,-0.097 -0.856995,-0.2602 -0.166534,-0.056 -0.659213,-0.2256 -0.829187,-0.2766 -0.134391,-0.04 -0.269441,-0.074 -0.404134,-0.1109 -1.612085,-0.4281 2.595286,0.6988 -1.053534,-0.2791 -0.157731,-0.042 0.629831,0.1729 0.472928,0.1281 -1.67797,-0.4711 -0.570277,-0.152 -1.329541,-0.3714 -0.565485,-0.1484 -1.103909,-0.3752 -1.644174,-0.5943 -0.451383,-0.1838 -0.915817,-0.3262 -1.385076,-0.4542 0.201747,0.055 0.401855,0.1084 0.602024,0.1654 0.05746,0.016 -0.117806,-0.029 -0.17353,-0.044 -0.316892,-0.085 -0.63463,-0.1696 -0.951219,-0.2563 -0.0463,-0.011 -0.142213,-0.039 -0.141871,-0.064 -0.0127,-0.038 0.0416,-0.061 0.05121,-0.094 0.03488,-0.013 0.06566,-0.031 0.104688,-0.039 0.130459,-0.034 0.270025,-0.045 0.405881,-0.064 0.347186,-0.048 0.69245,-0.074 1.04258,-0.091 0.831761,-0.025 1.663811,0.01 2.49457,0.042 0.375197,0 0.753773,0.036 1.12698,-0.014 0.167495,-0.035 0.336159,-0.07 0.502417,-0.114 0.138403,-0.036 0.279057,-0.059 0.419892,-0.081 0.156373,-0.016 0.29532,-0.087 0.440322,-0.14 0.156769,-0.061 0.314681,-0.1147 0.472324,-0.1712 0.02735,-0.012 0.254904,-0.07 0.253943,-0.075 -0.01835,-0.019 -0.017,-0.023 -0.0248,-0.034 -0.176405,-0.2649 -0.429307,-0.4665 -0.673224,-0.6656 -0.262626,-0.214 -0.298539,-0.2382 -0.56646,-0.4427 -0.356481,-0.2582 -0.712914,-0.5165 -1.101053,-0.7245 -0.237116,-0.1162 -0.484494,-0.2082 -0.726906,-0.312 -0.338564,-0.1227 -0.68022,-0.2365 -1.027608,-0.3322 -0.301206,-0.082 -0.596909,-0.183 -0.893694,-0.2805 -0.196109,-0.067 -0.387696,-0.1432 -0.581594,-0.2142 -0.169054,-0.047 -0.3212,-0.1341 -0.482895,-0.1972 -0.01814,-0.018 -0.0377,-0.017 -0.04509,-0.04 -0.03232,-0.058 0.03434,-0.1166 0.07641,-0.1367 0.108592,-0.052 0.570633,-0.063 0.679514,-0.071 0.790405,-0.032 1.581461,-0.059 2.37067,-0.1152 0.366171,-0.024 0.727241,-0.084 1.086483,-0.1564 0.109506,-0.025 0.05672,-0.013 0.158322,-0.035 0,0 0.794013,0.3148 0.794013,0.3148 l 0,0 c -0.105117,0.015 -0.05101,0.01 -0.162992,0.032 -0.373718,0.067 -0.748403,0.1319 -1.128848,0.15 -0.786708,0.05 -1.574479,0.08 -2.361711,0.1183 -0.09575,0.01 -0.192702,0.016 -0.291752,0.024 -0.06787,0.01 -0.14265,0.013 -0.212143,0.021 -0.04341,0.01 -0.08519,0.023 -0.127826,0.018 -0.02386,0 -0.02984,-0.023 -0.03703,-0.036 -0.01861,-0.018 0.161003,-0.013 0.05752,0.016 0.155513,0.07 0.31833,0.1335 0.480059,0.1929 0.191909,0.073 0.383052,0.1449 0.576554,0.2112 0.292268,0.1 0.586439,0.1929 0.884588,0.2754 0.347112,0.1015 0.69188,0.2128 1.029429,0.3422 0.246236,0.1011 0.496664,0.1952 0.732544,0.3197 0.373025,0.2141 0.71409,0.4774 1.060523,0.7312 0.251081,0.1934 0.320474,0.245 0.567852,0.446 0.223501,0.182 0.463513,0.3669 0.637573,0.6006 0.0289,0.039 0.04691,0.084 0.07271,0.1267 0.0127,0.038 0.01573,0.071 0.0093,0.1058 -0.01075,0.1185 -0.194086,0.083 -0.273627,0.1258 -0.160909,0.044 -0.318679,0.1084 -0.474884,0.1675 -0.147891,0.05 -0.286825,0.1271 -0.441457,0.1564 -0.139539,0.021 -0.280777,0.041 -0.419946,0.071 -0.170002,0.044 -0.338592,0.085 -0.510004,0.12 -0.385075,0.072 -0.782777,0.011 -1.1714,0.014 -0.83156,-0.041 -1.664409,-0.077 -2.497118,-0.051 -0.378112,0.017 -0.362159,0.01 -0.726152,0.052 -0.225611,0.026 -0.446216,0.081 -0.670691,0.1081 -0.02453,0 -0.05322,3e-4 -0.07865,0 -0.01673,-0.024 -0.01458,-0.044 -0.0054,-0.063 0.0034,-0.011 0.02245,0.01 0.03353,0.015 0.03024,0.013 0.12292,0.036 0.09228,0.028 -0.216123,-0.056 -0.432507,-0.1147 -0.648205,-0.1739 -0.05739,-0.016 0.119472,0.03 0.17701,0.045 0.328329,0.087 0.656168,0.1753 0.98431,0.2631 0.464817,0.1293 0.923223,0.2789 1.369761,0.4622 0.540164,0.2207 1.082727,0.4366 1.648025,0.5862 1.309615,0.3814 -2.790831,-0.7485 0.848601,0.2409 0.150701,0.041 -0.600034,-0.1597 -0.450261,-0.1199 1.109151,0.2933 0.789041,0.2069 1.488628,0.3982 0.133403,0.038 0.268681,0.073 0.401486,0.1142 0.132664,0.04 0.696745,0.2334 0.826499,0.2752 0.456531,0.1485 0.398596,0.1254 0.861027,0.259 0.136636,0.039 0.273721,0.079 0.410437,0.1196 -0.124518,-0.031 -0.248809,-0.1295 -0.372763,-0.095 -0.12302,0.033 0.243043,0.065 0.36445,0.097 0.615209,0.1642 1.231103,0.3253 1.843913,0.4982 0.230416,0.073 0.49077,0.1333 0.64297,0.3369 0.06297,0.1117 0.100541,0.2293 0.06088,0.3571 -0.05672,0.1041 -0.156326,0.1749 -0.245295,0.2497 -0.114458,0.08 -0.239434,0.1315 -0.366171,0.1893 -0.153167,0.065 -0.313484,0.1056 -0.479722,0.1175 -0.131669,0.017 -0.264031,0.028 -0.392467,0.061 -0.15724,0.046 -0.322739,0.045 -0.478184,0.095 -0.231263,0.046 -0.462203,0.098 -0.693674,0.1467 -0.353254,0.052 -0.709412,0.078 -1.062445,0.133 -0.768054,0.08 -1.536665,0.178 -2.311391,0.1326 -1.124991,-0.033 -2.250546,-0.1022 -3.369273,-0.2293 -0.439079,-0.06 -0.878399,-0.1205 -1.317538,-0.1807 -0.08628,-0.011 -0.17394,-0.024 -0.259165,-0.035 -0.05101,-0.01 -0.102873,0 -0.150627,-0.016 -0.285099,-0.1031 -0.561481,-0.2296 -0.842486,-0.3434 0.145815,0.026 0.292551,0.045 0.435113,0.089 0.551064,0.139 1.100986,0.2831 1.647427,0.4404 0.38656,0.1133 0.160163,0.046 -0.475368,-0.1244 -0.05262,-0.014 0.108249,0.03 0.164202,0.045 0.182386,0.047 0.181231,0.044 0.367972,0.086 0.07035,0.015 0.139236,0.03 0.209167,0.045 0.551675,0.1326 1.106395,0.2684 1.674744,0.3055 0.822346,0.053 1.645982,0.094 2.456534,0.2541 0.328067,0.063 0.641545,0.1208 0.968067,0.1928 0.964653,0.2128 1.916517,0.4838 2.858348,0.7797 0.988779,0.3354 1.968956,0.6945 2.949112,1.0545 0.02097,0.01 0.338995,0.1178 0.378852,0.1586 0.03663,0.038 0.03864,0.1133 -0.0067,0.1447 -0.03253,0.022 -0.0832,0.01 -0.113329,0.036 -0.144532,0.044 -0.283015,0.1111 -0.420444,0.1726 -0.114532,0.04 -0.230631,0.069 -0.350513,0.089 -0.12218,0.01 -0.241981,0.042 -0.365936,0.024 -0.215564,0.017 -0.434367,0.017 -0.650973,0.028 -0.384228,0 -0.764162,-0.05 -1.147282,-0.074 -0.786527,-0.064 -1.573531,-0.1395 -2.363707,-0.1376 -0.462996,0 -0.864885,0 -1.330179,-0.013 -1.052984,-0.024 -2.105289,-0.079 -3.158501,-0.086 -1.322074,0.01 -2.643624,0.057 -3.960309,0.1815 -0.355681,0.043 -0.70958,0.094 -1.064885,0.1402 -0.06646,0.01 -0.130782,0.016 -0.197379,0.025 -0.03999,0.01 -0.08008,0.03 -0.122301,0.018 -0.289642,-0.09 -0.567146,-0.2129 -0.850719,-0.319 0.06572,0.029 4.7e-4,2e-4 0.09229,0.015 0.08823,0.011 0.175464,0.025 0.264158,0.032 0.314042,0.031 0.631115,0.011 0.946172,0.01 0.362126,0 0.726388,-0.014 1.088285,-0.01 0.475509,0.013 0.950265,0.059 1.42447,0.091 0.449415,0.045 0.575096,0.053 1.022508,0.1166 0.661255,0.094 1.318412,0.2166 1.98419,0.2782 0.486987,0.069 0.970674,0.1558 1.457312,0.2273 0.508532,0.075 0.497195,0.066 1.012225,0.1337 0.177595,0.023 0.353295,0.048 0.530171,0.072 1.010707,0.147 2.01091,0.3506 2.999884,0.6074 0.804631,0.1774 1.61359,0.3326 2.427058,0.4667 0.636143,0.1166 1.274341,0.2271 1.905793,0.3688 0.443372,0.096 0.470596,0.099 1.146145,0.281 0.206499,0.055 0.141636,0.1953 -0.02675,0.2142 -0.430994,0.1064 -0.857378,0.2347 -1.298594,0.2948 -0.277672,0.034 -0.32972,0.046 -0.613394,0.06 -0.479756,0.022 -0.960097,-0.01 -1.439967,-0.01 -0.922397,-0.015 -1.844914,-0.04 -2.767431,-0.019 -1.164633,0.053 -2.32891,0.1191 -3.49183,0.2029 -1.24244,0.089 -2.486875,0.1425 -3.732648,0.1 -0.922236,-0.016 -1.844887,-0.021 -2.766027,-0.072 -0.337046,-0.024 -0.673876,-0.055 -1.012091,-0.052 -0.230295,0 -0.343174,0.014 -0.569451,0.027 -0.08001,0.01 -0.159517,0.01 -0.23844,0.013 -0.378233,0.043 -0.749861,0.1149 -1.110152,0.2413 -0.262236,0.095 -0.516825,0.2123 -0.747852,0.3687 -0.129546,0.099 -0.28194,0.2194 -0.350063,0.372 -0.266927,-0.074 -0.532429,-0.1502 -0.799844,-0.2219 -0.0206,-0.01 0.03249,0.015 0.04646,0.021 0.124749,0.017 0.257026,-0.033 0.381988,-0.026 0.362858,-0.01 0.723048,0.034 1.085375,0.046 0.640101,0.038 1.280161,0.04 1.920866,0.045 0.47485,0 0.9505,-0.013 1.424504,0.024 0.414993,0.034 0.831519,0.05 1.246888,0.08 0.915159,0.051 1.830634,0.1359 2.748171,0.1054 1.136301,-0.061 2.273186,-0.1526 3.411436,-0.1131 0.231834,0.01 0.464817,0.014 0.697128,0.028 1.371529,0.079 2.732997,0.2753 4.077913,0.5526 1.418113,0.2987 2.834156,0.6177 4.228453,1.0136 0.03421,0.03 0.08351,0.05 0.108,0.09 0.05746,0.098 -0.138335,0.2026 -0.197238,0.2498 -0.149995,0.096 -0.317564,0.1555 -0.482921,0.2219 -0.203394,0.082 -0.402662,0.1757 -0.603334,0.2655 -0.269508,0.1197 -0.548847,0.2124 -0.823448,0.3176 -0.448064,0.1484 -0.905495,0.2666 -1.369734,0.3524 -0.963753,0.1561 -1.936087,0.2401 -2.90658,0.3432 -0.447224,0.046 -0.467613,0.046 -0.899178,0.098 -0.306617,0.037 -0.616526,0.074 -0.917948,0.1436 -0.05417,0.013 -0.107046,0.03 -0.161843,0.046 -0.0291,0.01 -0.06015,0.017 -0.08892,0.025 -0.01821,-0.02 -0.01075,-0.045 -0.01283,-0.046 -1.113284,-0.3507 -0.990567,-0.1453 -0.560547,-0.2387 0.497585,-0.076 0.993879,-0.1652 1.49762,-0.1952 0.162206,-0.014 0.3247,-0.032 0.487403,-0.042 1.108103,-0.072 2.221757,-0.03 3.329228,0.03 0.975876,0.059 1.952074,0.1324 2.930463,0.1277 0,0 0.782737,0.3305 0.782737,0.3305 z"
       inkscape:connector-curvature="0"
       inkscape:transform-center-x="18.719673"
       inkscape:transform-center-y="4.3306809" />
  </g>
</svg>
