<?xml version="1.0" encoding="UTF-8" standalone="no"?>
<!-- Created with Inkscape (http://www.inkscape.org/) -->

<svg
   xmlns:dc="http://purl.org/dc/elements/1.1/"
   xmlns:cc="http://creativecommons.org/ns#"
   xmlns:rdf="http://www.w3.org/1999/02/22-rdf-syntax-ns#"
   xmlns:svg="http://www.w3.org/2000/svg"
   xmlns="http://www.w3.org/2000/svg"
   xmlns:sodipodi="http://sodipodi.sourceforge.net/DTD/sodipodi-0.dtd"
   xmlns:inkscape="http://www.inkscape.org/namespaces/inkscape"
   version="1.0"
   width="16"
   height="16"
   viewBox="0 0 16 16"
   id="svg2"
   xml:space="preserve"
   inkscape:version="0.48.3.1 r9886"
   sodipodi:docname="StatusNet_Icon_Source.svg"><metadata
   id="metadata41"><rdf:RDF><cc:Work
       rdf:about=""><dc:format>image/svg+xml</dc:format><dc:type
         rdf:resource="http://purl.org/dc/dcmitype/StillImage" /></cc:Work></rdf:RDF></metadata><sodipodi:namedview
   pagecolor="#ffffff"
   bordercolor="#666666"
   borderopacity="1"
   objecttolerance="10"
   gridtolerance="10"
   guidetolerance="10"
   inkscape:pageopacity="0"
   inkscape:pageshadow="2"
   inkscape:window-width="1920"
   inkscape:window-height="1032"
   id="namedview39"
   showgrid="false"
   inkscape:zoom="10.429825"
   inkscape:cx="56.958588"
   inkscape:cy="-21.324803"
   inkscape:window-x="0"
   inkscape:window-y="26"
   inkscape:window-maximized="1"
   inkscape:current-layer="svg2" /><defs
   id="defs57" />

<g
   id="StatusNet_x5F_Art_x5F_Red"
   transform="matrix(0.03383515,0,0,0.03383515,-0.38136898,0.19714921)">
	<g
   id="Layer_1">
		
			<linearGradient
   x1="132.90089"
   y1="289.35739"
   x2="456.39041"
   y2="9.3713999"
   id="path5488_3_"
   gradientUnits="userSpaceOnUse"
   gradientTransform="matrix(1,0,0,-1,-56,367)">
			<stop
   id="stop12"
   style="stop-color:#f04f4e;stop-opacity:1"
   offset="0" />
			<stop
   id="stop14"
   style="stop-color:#d72027;stop-opacity:1"
   offset="1" />
		</linearGradient>
		<path
   d="m 239.856,7.325 c -116.657,0 -211.36,94.703 -211.36,211.36 0,116.657 94.703,211.36 211.36,211.36 41.338,0 58.144,-9.986 91.489,-23.268 12.471,-7.857 142.361,47.023 143.529,46.162 0.922,-1.586 -56.504,-122.137 -48.299,-134.281 14.01,-29.91 24.641,-56.234 24.641,-99.973 C 451.217,102.028 356.512,7.325 239.856,7.325 z m 0,80.265 c 72.379,0 131.097,58.716 131.097,131.095 0,66.122 -53.508,131.096 -131.097,131.096 -72.38,0 -131.097,-58.717 -131.097,-131.096 0,-72.379 58.717,-131.095 131.097,-131.095 z"
   id="path5488_5_"
   style="fill:url(#path5488_3_);stroke:#a31d21;stroke-width:10"
   inkscape:connector-curvature="0" />
	</g>
	<g
   id="Highlights">
		<linearGradient
   x1="84.297897"
   y1="83.492203"
   x2="480.83881"
   y2="428.20001"
   id="SVGID_1_"
   gradientUnits="userSpaceOnUse">
			<stop
   id="stop19"
   style="stop-color:#ffffff;stop-opacity:1"
   offset="0" />
			<stop
   id="stop21"
   style="stop-color:#d72027;stop-opacity:1"
   offset="0.74849999" />
		</linearGradient>
		<path
   d="m 463.113,445.967 c -1.447,0 -2.117,-0.209 -20.855,-7.535 -30.83,-12.053 -94.98,-37.133 -111.871,-37.133 -0.895,0 -1.34,0.082 -1.502,0.121 l -0.199,0.127 -0.396,0.156 c -4.734,1.887 -9.09,3.691 -13.302,5.436 -23.872,9.889 -41.119,17.033 -75.473,17.033 -113.457,0 -205.761,-92.299 -205.761,-205.75 0,-113.453 92.304,-205.753 205.761,-205.753 113.458,0 205.761,92.3 205.761,205.753 0,42.708 -10.354,68.202 -23.887,97.094 l -0.238,0.451 c -0.342,1.266 -0.873,8.43 12.162,42.213 8.162,21.152 18.762,45.369 25.775,61.396 9.479,21.662 9.479,21.662 8.076,24.078 l -0.482,0.83 -1.998,1.475 -1.571,0.008 0,0 z M 330.387,392.049 c 18.635,0 81.477,24.566 115.24,37.766 3.334,1.303 6.6,2.58 9.438,3.68 -1.312,-3.033 -2.865,-6.58 -4.453,-10.209 -7.281,-16.641 -18.285,-41.787 -26.619,-63.57 -14.08,-36.811 -13.176,-44.615 -10.852,-48.4 12.977,-27.723 22.883,-52.229 22.883,-92.893 0,-108.352 -88.152,-196.501 -196.509,-196.501 -108.355,0 -196.509,88.15 -196.509,196.501 0,108.35 88.154,196.5 196.509,196.5 32.513,0 48.194,-6.498 71.933,-16.33 4.15,-1.719 8.439,-3.496 13.115,-5.361 1.492,-0.808 3.361,-1.183 5.824,-1.183 l 0,0 z"
   id="path23"
   style="fill:url(#SVGID_1_)"
   inkscape:connector-curvature="0" />
		
			<linearGradient
   x1="131.80029"
   y1="178.05659"
   x2="350.80688"
   y2="368.4361"
   id="SVGID_2_"
   gradientUnits="userSpaceOnUse"
   gradientTransform="matrix(-1,0,0,-1,481.2539,492.0146)">
			<stop
   id="stop26"
   style="stop-color:#ffffff;stop-opacity:0.43000001"
   offset="0" />
			<stop
   id="stop28"
   style="stop-color:#ffffff;stop-opacity:0"
   offset="0.81599998" />
		</linearGradient>
		<path
   d="m 239.855,73.404 c 80.109,0 145.283,65.173 145.283,145.281 0,80.11 -65.174,145.282 -145.283,145.282 -80.108,0 -145.281,-65.172 -145.281,-145.282 0,-36.368 14.714,-72.855 40.368,-100.102 27.43,-29.134 64.689,-45.179 104.913,-45.179 l 0,0 z m 0,281.313 c 75.008,0 136.033,-61.023 136.033,-136.032 0,-75.007 -61.025,-136.029 -136.033,-136.029 -84.021,0 -136.03,70.609 -136.03,136.029 10e-4,75.008 61.024,136.032 136.03,136.032 l 0,0 z"
   id="path30"
   style="fill:url(#SVGID_2_)"
   inkscape:connector-curvature="0" />
	</g>
</g>
<g
   id="StatusNet_x5F_Art_x5F_Green"
   style="display:none"
   transform="translate(0,-496)">
	<g
   id="Layer_1_copy"
   style="display:inline">
		
			<linearGradient
   x1="132.90089"
   y1="289.35739"
   x2="456.39041"
   y2="9.3713999"
   id="path5488_4_"
   gradientUnits="userSpaceOnUse"
   gradientTransform="matrix(1,0,0,-1,-56,367)">
			<stop
   id="stop35"
   style="stop-color:#a4c644;stop-opacity:1"
   offset="0" />
			<stop
   id="stop37"
   style="stop-color:#5c883c;stop-opacity:1"
   offset="1" />
		</linearGradient>
		<path
   d="m 239.856,7.325 c -116.657,0 -211.36,94.703 -211.36,211.36 0,116.657 94.703,211.36 211.36,211.36 41.338,0 58.144,-9.986 91.489,-23.268 12.471,-7.857 142.361,47.023 143.529,46.162 0.922,-1.586 -56.504,-122.137 -48.299,-134.281 14.01,-29.91 24.641,-56.234 24.641,-99.973 C 451.217,102.028 356.512,7.325 239.856,7.325 z m 0,80.265 c 72.379,0 131.097,58.716 131.097,131.095 0,66.122 -53.508,131.096 -131.097,131.096 -72.38,0 -131.097,-58.717 -131.097,-131.096 0,-72.379 58.717,-131.095 131.097,-131.095 z"
   id="path5488_1_"
   style="fill:url(#path5488_4_);stroke:#5c8727;stroke-width:10"
   inkscape:connector-curvature="0" />
	</g>
	<g
   id="Highlights_copy"
   style="display:inline">
		<linearGradient
   x1="84.297897"
   y1="83.492203"
   x2="480.83881"
   y2="428.20001"
   id="SVGID_3_"
   gradientUnits="userSpaceOnUse">
			<stop
   id="stop42"
   style="stop-color:#ffffff;stop-opacity:1"
   offset="0.26989999" />
			<stop
   id="stop44"
   style="stop-color:#ffffff;stop-opacity:0"
   offset="0.72390002" />
		</linearGradient>
		<path
   d="m 463.113,445.967 c -1.447,0 -2.117,-0.209 -20.855,-7.535 -30.83,-12.053 -94.98,-37.133 -111.871,-37.133 -0.895,0 -1.34,0.082 -1.502,0.121 l -0.199,0.127 -0.396,0.156 c -4.734,1.887 -9.09,3.691 -13.302,5.436 -23.872,9.889 -41.119,17.033 -75.473,17.033 -113.457,0 -205.761,-92.299 -205.761,-205.75 0,-113.453 92.304,-205.753 205.761,-205.753 113.458,0 205.761,92.3 205.761,205.753 0,42.708 -10.354,68.202 -23.887,97.094 l -0.238,0.451 c -0.342,1.266 -0.873,8.43 12.162,42.213 8.162,21.152 18.762,45.369 25.775,61.396 9.479,21.662 9.479,21.662 8.076,24.078 l -0.482,0.83 -1.998,1.475 -1.571,0.008 0,0 z M 330.387,392.049 c 18.635,0 81.477,24.566 115.24,37.766 3.334,1.303 6.6,2.58 9.438,3.68 -1.312,-3.033 -2.865,-6.58 -4.453,-10.209 -7.281,-16.641 -18.285,-41.787 -26.619,-63.57 -14.08,-36.811 -13.176,-44.615 -10.852,-48.4 12.977,-27.723 22.883,-52.229 22.883,-92.893 0,-108.352 -88.152,-196.501 -196.509,-196.501 -108.355,0 -196.509,88.15 -196.509,196.501 0,108.35 88.154,196.5 196.509,196.5 32.513,0 48.194,-6.498 71.933,-16.33 4.15,-1.719 8.439,-3.496 13.115,-5.361 1.492,-0.808 3.361,-1.183 5.824,-1.183 l 0,0 z"
   id="path46"
   style="fill:url(#SVGID_3_)"
   inkscape:connector-curvature="0" />
		
			<linearGradient
   x1="131.80029"
   y1="178.05659"
   x2="350.80688"
   y2="368.4361"
   id="SVGID_4_"
   gradientUnits="userSpaceOnUse"
   gradientTransform="matrix(-1,0,0,-1,481.2539,492.0146)">
			<stop
   id="stop49"
   style="stop-color:#ffffff;stop-opacity:0.43000001"
   offset="0" />
			<stop
   id="stop51"
   style="stop-color:#ffffff;stop-opacity:0"
   offset="0.81599998" />
		</linearGradient>
		<path
   d="m 239.855,73.404 c 80.109,0 145.283,65.173 145.283,145.281 0,80.11 -65.174,145.282 -145.283,145.282 -80.108,0 -145.281,-65.172 -145.281,-145.282 0,-36.368 14.714,-72.855 40.368,-100.102 27.43,-29.134 64.689,-45.179 104.913,-45.179 l 0,0 z m 0,281.313 c 75.008,0 136.033,-61.023 136.033,-136.032 0,-75.007 -61.025,-136.029 -136.033,-136.029 -84.021,0 -136.03,70.609 -136.03,136.029 10e-4,75.008 61.024,136.032 136.03,136.032 l 0,0 z"
   id="path53"
   style="fill:url(#SVGID_4_)"
   inkscape:connector-curvature="0" />
	</g>
</g>
<g
   id="Layer_9"
   style="display:none"
   transform="translate(0,-496)">
</g>
</svg>